<svg xmlns="http://www.w3.org/2000/svg" viewBox="0 0 59.38 73.52"><defs><style>.cls-1{fill:#dedede;}.cls-2{fill:#232020;}.cls-3{fill:#007bc3;}.cls-4{fill:#00943a;}</style></defs><title>logo_yraygerb</title><g id="Isolation_Mode" data-name="Isolation Mode"><path d="M58.24,64.54a3.89,3.89,0,0,1-3.7,3.21c-3.72.07-7.44.07-11.16.08h-.79l-6,0H34.94A5.24,5.24,0,0,0,29.87,71l-.18.35c-.18-.33-.32-.63-.49-.91a5,5,0,0,0-4.53-2.63c-6.1,0-12.21,0-18.31,0h0c-.31,0-.61,0-.92,0H5.27A4.15,4.15,0,0,1,1,63.59V34.11h9.48a1.4,1.4,0,0,0-.29,1,2.28,2.28,0,0,0,.7,1.27l.09.09c.37.43.76.85,1.13,1.26.58.64,1.19,1.3,1.76,2a1.76,1.76,0,0,0,1.32.71,1.83,1.83,0,0,0,1.27-.63c.6-.65,1.23-1.3,1.84-1.93l1.53-1.6A1.11,1.11,0,0,1,20.6,36a1,1,0,0,1,.53.13,1.29,1.29,0,0,1,.21,1.41,2.63,2.63,0,0,1-.41.55c-1.07,1-2.17,2.08-3.23,3.1l-1.5,1.43c-1.18,1.13-.81,2.08-.48,2.54A3.66,3.66,0,0,0,17,46.23c-.12.13-.25.26-.38.38-.68.67-1.38,1.36-2.07,2.06-2,2.08-3.69,3.8-5.23,5.42a2.66,2.66,0,0,0-.7,2.59,2.81,2.81,0,0,0,2.1,1.9c.54.14,1.08.31,1.66.49l.19.07c-.13.25-.24.51-.36.76l-.21.45a1.79,1.79,0,0,0-.06,1.6,1.76,1.76,0,0,0,1.27.91c1.52.34,3.07.66,4.57,1l1.54.33a1.69,1.69,0,0,0,.38,0,1.64,1.64,0,0,0,1.54-1.37v0c.35-1.15.63-2.12.88-3.11a.4.4,0,0,1,0-.12h.12l8.75,0H40s0,.05,0,.07a17.68,17.68,0,0,0,.6,2.14c.13.37.24.72.35,1.07a1.59,1.59,0,0,0,1.6,1.3,2.7,2.7,0,0,0,.6-.07c1.84-.43,3.73-.81,5.56-1.18l.1,0A2,2,0,0,0,50.19,62a1.84,1.84,0,0,0,0-1.6c-.13-.33-.28-.64-.43-.94l-.18-.37,1.38-.38.18-.05a2.76,2.76,0,0,0,1.37-5l-.1-.1c-1.28-1.33-2.61-2.65-3.9-3.93L46.1,47.27c-.34-.34-.67-.7-1-1.07a2.69,2.69,0,0,0,1.23-.86A2,2,0,0,0,46,42.61l-1.22-1.18L41.18,38a1.41,1.41,0,0,1-.54-1.13,1.06,1.06,0,0,1,.64-.72A1,1,0,0,1,41.7,36a.51.51,0,0,1,.36.17c1.08,1,2.25,2.2,3.58,3.55h0a1.82,1.82,0,0,0,1.31.76,1.84,1.84,0,0,0,1.34-.8l2.36-2.6.56-.62A2.25,2.25,0,0,0,52,34.79a1.73,1.73,0,0,0-.21-.68h6.62v3.75c0,8.09,0,16.17,0,24.26a13.92,13.92,0,0,1-.13,2.42M40.48,38.67l4.8,4.66a1.07,1.07,0,0,1,.24,1.42,3,3,0,0,1-1.24.7,6.21,6.21,0,0,1-1,.21c.78.85,1.43,1.6,2.14,2.31,2.08,2.11,4.21,4.17,6.27,6.31.53.54,1.17,1.12.9,2.1s-1.11,1.14-1.9,1.36l-2.39.67a5.81,5.81,0,0,0,.22.76c.23.55.52,1.07.75,1.61s.09,1-.64,1.13c-1.9.38-3.8.76-5.69,1.2a1.8,1.8,0,0,1-.37,0c-.32,0-.52-.16-.64-.58-.3-1-.72-2.06-.93-3.12-.14-.74-.48-.89-1.14-.89h0l-8.79,0-8.74,0h0a1,1,0,0,0-1.13.88c-.26,1-.56,2-.87,3.07-.09.32-.19.68-.58.68l-.17,0c-2-.43-4.07-.85-6.1-1.3-.63-.14-.79-.54-.52-1.11s.5-1.13.8-1.67.15-.61-.27-.74c-.83-.25-1.65-.54-2.48-.75A1.65,1.65,0,0,1,10,54.78c1.73-1.82,3.48-3.62,5.23-5.41,1.1-1.12,2.22-2.2,3.33-3.31a3.72,3.72,0,0,0,.31-.45,5,5,0,0,1-1.34-.22,2.66,2.66,0,0,1-1-.81c-.33-.48,0-.9.35-1.25,1.58-1.51,3.16-3,4.74-4.53a3.6,3.6,0,0,0,.59-.8,2.23,2.23,0,0,0-.53-2.71A1.92,1.92,0,0,0,20.6,35a2.05,2.05,0,0,0-1.49.56c-1.12,1.18-2.26,2.34-3.38,3.53a.79.79,0,0,1-.53.32.79.79,0,0,1-.56-.36c-1-1.1-1.94-2.15-2.91-3.23-.21-.25-.5-.52-.53-.81s.21-.46.63-.78l.17-.11h0l.56-.34.78-.42c1.08-.59,2.14-1.22,3.23-1.79a1.49,1.49,0,0,0,.87-2,1.29,1.29,0,0,0-1.25-.77,2.83,2.83,0,0,0-.83.14c-1.71.55-3.45,1-5.18,1.46a1.13,1.13,0,0,1-.3,0c-.37,0-.59-.23-.65-.76-.13-1.34-.36-2.67-.54-4-.13-.93,0-1.12,1-1.14L15,24.4a1.35,1.35,0,0,0,1.48-1.31,1.47,1.47,0,0,0-1.35-1.55c-1.73-.27-3.45-.6-5.19-.83-.77-.11-.76-.49-.57-1,.44-1.3.89-2.59,1.33-3.89.2-.6.35-.86.65-.86a1.85,1.85,0,0,1,.72.25c1.71.85,3.4,1.73,5.09,2.63a2,2,0,0,0,.89.23,1.36,1.36,0,0,0,1.15-.6,1.44,1.44,0,0,0-.36-2q-.59-.53-1.14-1.08c-1-1-2-2-3-2.93-.82-.78-.86-1-.14-1.7.95-.86,1.91-1.71,2.86-2.58.34-.32.56-.49.74-.49s.39.22.68.69c1.1,1.77,2.21,3.53,3.29,5.31a1,1,0,0,0,.85.59.82.82,0,0,0,.26,0c.53-.13.65-.54.64-1.05,0-1.19,0-2.38,0-3.57,0-.41.15-.74.5-.74l.21,0c1.76.52,3.51,1.11,5.25,1.67a2.34,2.34,0,0,1,0,.27,12.79,12.79,0,0,1-6,8.25c-2.46,1.38-2.91,5.28-1.38,7.24A3.23,3.23,0,0,0,25,26.56a3.1,3.1,0,0,0,1.62-.44,6,6,0,0,0,2.8-4.77c.17-1.8-.17-2.28-1.69-2.72a2.83,2.83,0,0,1,.31-.48A2.75,2.75,0,0,1,30,17.4a3,3,0,0,1,1.2.26,2.76,2.76,0,0,1,1.61,2.7,6.67,6.67,0,0,0,1.49,4.84,3.8,3.8,0,0,0,2.9,1.35,3.14,3.14,0,0,0,2.37-1,5.1,5.1,0,0,0-1.21-7.43,13,13,0,0,1-5.95-8,.47.47,0,0,1,.35-.69L37.25,8a1.52,1.52,0,0,1,.43-.08c.41,0,.61.28.62.85,0,1.17,0,2.34,0,3.51,0,.46.07.88.59,1l.23,0a1,1,0,0,0,.88-.59c1.1-1.8,2.22-3.59,3.33-5.38.27-.42.43-.62.64-.62s.36.14.66.4C45.71,8,46.76,9,47.81,10a.59.59,0,0,1,.06,1c-.41.41-.82.81-1.22,1.22-1.16,1.18-2.33,2.36-3.47,3.56A1.41,1.41,0,0,0,43,17.47a1.26,1.26,0,0,0,1,.54,1.69,1.69,0,0,0,.7-.16c.37-.17.73-.36,1.09-.54,1.48-.74,3-1.48,4.43-2.24a1.19,1.19,0,0,1,.51-.14.56.56,0,0,1,.55.44q.8,2.24,1.54,4.5a.56.56,0,0,1-.5.82c-1.78.28-3.55.61-5.32.89a1.48,1.48,0,0,0-1.43,1.5,1.4,1.4,0,0,0,1.54,1.34l5.35.17c.85,0,1.08.32,1,1.09-.2,1.26-.39,2.53-.55,3.8-.09.7-.24,1-.67,1a2.29,2.29,0,0,1-.56-.1L46.49,29a2.14,2.14,0,0,0-.54-.08,1.21,1.21,0,0,0-1.18.74,1.3,1.3,0,0,0,.67,1.79c1.1.65,2.2,1.3,3.33,1.91A9.29,9.29,0,0,0,50,34l.27.16.24.14c.73.59.35,1.06-.07,1.52-1,1.07-1.93,2.15-2.91,3.21-.29.32-.44.48-.6.48s-.31-.16-.61-.47c-1.19-1.2-2.38-2.39-3.6-3.56a1.49,1.49,0,0,0-1-.46,1.88,1.88,0,0,0-.86.23c-1.46.73-1.62,2.24-.36,3.47M1,1H58.38V2q0,15.57,0,31.16H50.58l0,0,0,0,0,0-1.12-.54-.09,0c-1.15-.63-2.31-1.31-3.3-1.91-.39-.23-.35-.32-.26-.52s.06-.13.26-.13a1,1,0,0,1,.28,0l5.2,1.39a3.06,3.06,0,0,0,.82.13c1.42,0,1.61-1.4,1.66-1.86.15-1.13.33-2.36.55-3.77a1.93,1.93,0,0,0-.33-1.6,2,2,0,0,0-1.58-.64l-3.43-.11-1.93-.06c-.55,0-.56-.26-.57-.38s.19-.41.58-.47l2.88-.48,2.45-.42a1.58,1.58,0,0,0,1.18-.73,1.63,1.63,0,0,0,.11-1.38c-.55-1.68-1.06-3.16-1.55-4.53a1.57,1.57,0,0,0-1.49-1.11,2.13,2.13,0,0,0-1,.26l-3.7,1.87-.73.37-.2.1c-.29.15-.57.29-.86.42a.64.64,0,0,1-.28.07.27.27,0,0,1-.24-.13.42.42,0,0,1,.09-.49c.9-.94,1.83-1.88,2.73-2.8l.74-.75.76-.77.44-.44a1.62,1.62,0,0,0,.53-1.21,1.69,1.69,0,0,0-.61-1.21l-1.09-1L45.3,6.32A2,2,0,0,0,44,5.67a1.85,1.85,0,0,0-1.49,1.09c-.35.58-.71,1.15-1.07,1.72-.69,1.12-1.41,2.26-2.11,3.4,0-1.11,0-2.15,0-3.17a1.64,1.64,0,0,0-1.62-1.83A2.41,2.41,0,0,0,37,7c-1.57.48-3.16,1-4.54,1.43a1.47,1.47,0,0,0-1,1.94A13.88,13.88,0,0,0,37.83,19a3.74,3.74,0,0,1,1.75,2.71,3.92,3.92,0,0,1-.79,3.18,2.12,2.12,0,0,1-1.62.67,2.8,2.8,0,0,1-2.13-1,5.61,5.61,0,0,1-1.26-4.14,3.78,3.78,0,0,0-2.19-3.67A4,4,0,0,0,30,16.4a3.71,3.71,0,0,0-2.61,1A2.08,2.08,0,0,0,27,18a.36.36,0,0,1-.06.11l-.69,1.12,1.26.37a1.79,1.79,0,0,1,.91.43c.07.11.14.41.06,1.24a4.94,4.94,0,0,1-2.32,4,2.12,2.12,0,0,1-1.1.29,2.22,2.22,0,0,1-1.77-.84,4.17,4.17,0,0,1-.58-3.25A3.61,3.61,0,0,1,24.33,19a13.74,13.74,0,0,0,6.47-8.86,1.19,1.19,0,0,0,0-.47v-.8l-.69-.22-1.44-.47c-1.25-.4-2.55-.83-3.84-1.21a1.66,1.66,0,0,0-.49-.07,1.42,1.42,0,0,0-1,.41,1.87,1.87,0,0,0-.48,1.33V9.76c0,.72,0,1.47,0,2.21-.78-1.29-1.59-2.58-2.37-3.84L19.7,6.84a1.89,1.89,0,0,0-1.53-1.16,2.18,2.18,0,0,0-1.42.75L15,8,13.9,9a2.07,2.07,0,0,0-.84,1.48,2.4,2.4,0,0,0,1,1.69c.62.59,1.25,1.21,1.85,1.81L17,15.1c.44.44.82.79,1.17,1.11.19.16.38.41.22.64a.37.37,0,0,1-.34.18.9.9,0,0,1-.42-.12c-1.5-.79-3.28-1.73-5.11-2.64a2.68,2.68,0,0,0-1.17-.35c-1.08,0-1.42,1-1.6,1.53L9,17.65c-.19.57-.39,1.13-.58,1.7a1.84,1.84,0,0,0,.05,1.59,1.76,1.76,0,0,0,1.34.76c1,.13,2.07.31,3.08.48l2.08.35c.25,0,.53.15.51.49,0,.18,0,.37-.51.38l-5.28.13A2.08,2.08,0,0,0,8,24.11a2.06,2.06,0,0,0-.32,1.7c.06.45.13.9.19,1.34.13.87.26,1.76.35,2.63A1.64,1.64,0,0,0,9.9,31.45a2.22,2.22,0,0,0,.55-.08c1.71-.45,3.47-.91,5.23-1.47a1.63,1.63,0,0,1,.53-.1c.23,0,.28.07.34.19s0,.46-.43.67c-.64.34-1.28.69-1.89,1l-1.35.76-.26.14-.51.28h0l0,0-.35.2H1V27.53Q1,15,1,2.55V1M59.38,2V0H0V10.31q0,8.61,0,17.22V63.59a5.19,5.19,0,0,0,1.52,3.73,5.3,5.3,0,0,0,3.74,1.49h.52l.56,0h3.84l14.48,0A4,4,0,0,1,28.34,71c.1.17.19.35.3.55s.1.21.16.31l.9,1.7.88-1.7.06-.13a2,2,0,0,0,.13-.25A4.28,4.28,0,0,1,35,68.82H45.07c3.11,0,6.33,0,9.49-.08a4.78,4.78,0,0,0,3-1.18,5.05,5.05,0,0,0,1.61-2.85,13.17,13.17,0,0,0,.15-2.41v-.19c0-4.61,0-9.3,0-13.84V12.7c0-3.58,0-7.17,0-10.75"/><path class="cls-1" d="M40.48,38.67c1.59,1.56,3.2,3.1,4.8,4.66a1.07,1.07,0,0,1,.24,1.42,3,3,0,0,1-1.24.7,6.21,6.21,0,0,1-1,.21c.78.85,1.43,1.61,2.14,2.31,2.08,2.11,4.21,4.17,6.27,6.31.53.54,1.18,1.12.9,2.1s-1.11,1.14-1.9,1.36l-2.39.67a5.81,5.81,0,0,0,.22.76c.23.55.52,1.07.75,1.61s.09,1-.64,1.13c-1.9.38-3.8.77-5.69,1.2a1.8,1.8,0,0,1-.37,0c-.32,0-.52-.16-.64-.57-.3-1.05-.72-2.07-.93-3.13-.14-.74-.48-.89-1.14-.89h0l-8.79,0-8.74,0h0a1,1,0,0,0-1.13.88c-.26,1-.56,2-.86,3.07-.1.32-.2.68-.59.68l-.17,0c-2-.43-4.07-.85-6.1-1.3-.63-.14-.79-.54-.52-1.11s.51-1.13.8-1.67.15-.61-.27-.74c-.83-.25-1.64-.54-2.48-.75A1.65,1.65,0,0,1,10,54.78c1.73-1.82,3.48-3.62,5.23-5.41,1.1-1.12,2.22-2.21,3.33-3.31a4.43,4.43,0,0,0,.31-.44,5.39,5.39,0,0,1-1.34-.23,2.74,2.74,0,0,1-1-.81c-.33-.48,0-.9.35-1.25,1.58-1.51,3.17-3,4.73-4.53a3.51,3.51,0,0,0,.6-.79,2.25,2.25,0,0,0-.53-2.72A1.92,1.92,0,0,0,20.6,35a2.07,2.07,0,0,0-1.49.56c-1.12,1.18-2.26,2.34-3.37,3.53a.81.81,0,0,1-.54.32.79.79,0,0,1-.56-.36c-1-1.1-1.94-2.15-2.9-3.23-.22-.25-.51-.52-.54-.8s.21-.47.63-.79l.17-.11h0l.56-.34.78-.42c1.08-.59,2.14-1.22,3.23-1.79a1.48,1.48,0,0,0,.87-2,1.29,1.29,0,0,0-1.25-.77,2.83,2.83,0,0,0-.83.14c-1.71.55-3.45,1-5.18,1.46a1.13,1.13,0,0,1-.3,0c-.37,0-.59-.23-.65-.76-.13-1.34-.36-2.67-.54-4-.13-.93,0-1.12,1-1.14L15,24.4a1.35,1.35,0,0,0,1.48-1.31,1.47,1.47,0,0,0-1.35-1.55c-1.73-.27-3.45-.6-5.19-.84-.77-.1-.76-.48-.57-1,.44-1.3.89-2.59,1.33-3.89.2-.6.35-.86.65-.86a1.85,1.85,0,0,1,.72.25c1.71.85,3.4,1.73,5.09,2.63a2,2,0,0,0,.89.23,1.36,1.36,0,0,0,1.15-.6,1.44,1.44,0,0,0-.36-2q-.59-.53-1.14-1.08c-1-1-2-2-3-2.93-.82-.78-.85-1-.14-1.7.95-.86,1.91-1.71,2.86-2.58.34-.32.56-.49.74-.49s.39.22.68.69c1.1,1.77,2.21,3.53,3.29,5.31a1,1,0,0,0,.85.59.82.82,0,0,0,.26,0c.53-.13.65-.54.64-1.05,0-1.19,0-2.38,0-3.57,0-.41.15-.74.5-.74l.21,0c1.76.52,3.51,1.11,5.25,1.67a1.17,1.17,0,0,1,0,.27,12.79,12.79,0,0,1-6,8.25c-2.46,1.38-2.91,5.28-1.38,7.25A3.25,3.25,0,0,0,25,26.56a3.1,3.1,0,0,0,1.62-.44,5.92,5.92,0,0,0,2.8-4.76c.17-1.81-.17-2.29-1.68-2.73a2,2,0,0,1,.3-.47A2.72,2.72,0,0,1,30,17.4a3,3,0,0,1,1.2.26,2.76,2.76,0,0,1,1.61,2.7,6.67,6.67,0,0,0,1.49,4.84,3.8,3.8,0,0,0,2.9,1.35,3.14,3.14,0,0,0,2.37-1,5.1,5.1,0,0,0-1.21-7.43,13,13,0,0,1-5.95-8,.47.47,0,0,1,.35-.69L37.25,8a1.52,1.52,0,0,1,.43-.08c.41,0,.61.28.62.85,0,1.17,0,2.34,0,3.51,0,.46.07.88.59,1l.23,0a1,1,0,0,0,.88-.59c1.1-1.8,2.22-3.59,3.33-5.38.27-.42.43-.62.64-.62s.36.14.66.4C45.71,8,46.76,9,47.81,10a.59.59,0,0,1,.06,1l-1.22,1.21c-1.16,1.19-2.33,2.37-3.47,3.57A1.41,1.41,0,0,0,43,17.47a1.26,1.26,0,0,0,1,.54,1.69,1.69,0,0,0,.7-.16c.37-.17.73-.35,1.09-.54l4.43-2.24a1.19,1.19,0,0,1,.51-.14.56.56,0,0,1,.55.44q.8,2.24,1.54,4.5a.56.56,0,0,1-.5.82c-1.78.28-3.55.61-5.32.89a1.48,1.48,0,0,0-1.43,1.5,1.41,1.41,0,0,0,1.54,1.35l5.35.16c.85,0,1.08.32,1,1.09-.2,1.26-.38,2.53-.55,3.8-.09.7-.24,1-.67,1a2.29,2.29,0,0,1-.56-.1L46.49,29a2.14,2.14,0,0,0-.54-.08,1.21,1.21,0,0,0-1.18.75,1.29,1.29,0,0,0,.67,1.78c1.1.65,2.2,1.3,3.33,1.92A13,13,0,0,0,50,34l.27.17a1.21,1.21,0,0,1,.24.13c.73.59.35,1.06-.07,1.52-1,1.07-1.93,2.15-2.91,3.21-.29.32-.44.48-.6.48s-.31-.16-.61-.47c-1.19-1.2-2.38-2.39-3.6-3.56a1.49,1.49,0,0,0-1-.46,1.88,1.88,0,0,0-.86.23c-1.46.73-1.62,2.24-.36,3.47"/><path class="cls-2" d="M29,47.17c-.21.3-.48.73-.77.77a.7.7,0,0,1-.7-.88A31,31,0,0,1,28.1,44a5.69,5.69,0,0,1,.56-1.17l.18.1c.08,1.2.17,2.41.24,3.61a1,1,0,0,1-.12.62m7.43-3.09a52.76,52.76,0,0,1-3.17-5.58c-.82-1.67-1.42-3.45-2.16-5.31A41.33,41.33,0,0,1,25,44.78a4.88,4.88,0,0,0-.53,4.71A6.62,6.62,0,0,0,32,53.93a6.5,6.5,0,0,0,4.35-9.85"/><path class="cls-3" d="M1,1H58.38V2q0,15.57,0,31.16H50.58l0,0,0,0,0,0-1.12-.54-.09,0c-1.15-.63-2.31-1.31-3.3-1.91-.39-.23-.35-.32-.26-.52s.06-.13.26-.13a1,1,0,0,1,.28,0l5.2,1.39a3.06,3.06,0,0,0,.82.13c1.42,0,1.61-1.4,1.66-1.86.15-1.13.33-2.36.55-3.77a1.93,1.93,0,0,0-.33-1.6,2,2,0,0,0-1.58-.64l-3.43-.11-1.93-.06c-.55,0-.56-.26-.57-.38s.19-.41.58-.47l2.88-.48,2.45-.42a1.58,1.58,0,0,0,1.18-.73,1.63,1.63,0,0,0,.11-1.38c-.55-1.68-1.06-3.16-1.55-4.53a1.57,1.57,0,0,0-1.49-1.11,2.13,2.13,0,0,0-1,.26l-3.7,1.87-.73.37-.2.1c-.29.15-.57.29-.86.42a.64.64,0,0,1-.28.07.27.27,0,0,1-.24-.13.42.42,0,0,1,.09-.49c.9-.94,1.83-1.88,2.73-2.8l.74-.75.76-.77.44-.44a1.62,1.62,0,0,0,.53-1.21,1.69,1.69,0,0,0-.61-1.21l-1.09-1L45.3,6.32A2,2,0,0,0,44,5.67a1.85,1.85,0,0,0-1.49,1.09c-.35.58-.71,1.15-1.07,1.72-.69,1.12-1.41,2.26-2.11,3.4,0-1.11,0-2.15,0-3.17a1.64,1.64,0,0,0-1.62-1.83A2.41,2.41,0,0,0,37,7c-1.57.48-3.16,1-4.54,1.43a1.47,1.47,0,0,0-1,1.94A13.88,13.88,0,0,0,37.83,19a3.74,3.74,0,0,1,1.75,2.71,3.92,3.92,0,0,1-.79,3.18,2.12,2.12,0,0,1-1.62.67,2.8,2.8,0,0,1-2.13-1,5.61,5.61,0,0,1-1.26-4.14,3.78,3.78,0,0,0-2.19-3.67A4,4,0,0,0,30,16.4a3.71,3.71,0,0,0-2.61,1A2.08,2.08,0,0,0,27,18a.36.36,0,0,1-.06.11l-.69,1.12,1.26.37a1.79,1.79,0,0,1,.91.43c.07.11.14.41.06,1.24a4.94,4.94,0,0,1-2.32,4,2.12,2.12,0,0,1-1.1.29,2.22,2.22,0,0,1-1.77-.84,4.17,4.17,0,0,1-.58-3.25A3.61,3.61,0,0,1,24.33,19a13.74,13.74,0,0,0,6.47-8.86,1.19,1.19,0,0,0,0-.47v-.8l-.69-.22-1.44-.47c-1.25-.4-2.55-.83-3.84-1.21a1.66,1.66,0,0,0-.49-.07,1.42,1.42,0,0,0-1,.41,1.87,1.87,0,0,0-.48,1.33V9.76c0,.72,0,1.47,0,2.21-.78-1.29-1.59-2.58-2.37-3.84L19.7,6.84a1.89,1.89,0,0,0-1.53-1.16,2.18,2.18,0,0,0-1.42.75L15,8,13.9,9a2.07,2.07,0,0,0-.84,1.48,2.4,2.4,0,0,0,1,1.69c.62.59,1.25,1.21,1.85,1.81L17,15.1c.44.44.82.79,1.17,1.11.19.16.38.41.22.64a.37.37,0,0,1-.34.18.9.9,0,0,1-.42-.12c-1.5-.79-3.28-1.73-5.11-2.64a2.68,2.68,0,0,0-1.17-.35c-1.08,0-1.42,1-1.6,1.53L9,17.65c-.19.57-.39,1.13-.58,1.7a1.84,1.84,0,0,0,.05,1.59,1.76,1.76,0,0,0,1.34.76c1,.13,2.07.31,3.08.48l2.08.35c.25,0,.53.15.51.49,0,.18,0,.37-.51.38l-5.28.13A2.08,2.08,0,0,0,8,24.11a2.06,2.06,0,0,0-.32,1.7c.06.45.13.9.19,1.34.13.87.26,1.76.35,2.63A1.64,1.64,0,0,0,9.9,31.45a2.22,2.22,0,0,0,.55-.08c1.71-.45,3.47-.91,5.23-1.47a1.63,1.63,0,0,1,.53-.1c.23,0,.28.07.34.19s0,.46-.43.67c-.64.34-1.28.69-1.89,1l-1.35.76-.26.14-.51.28h0l0,0-.35.2H1V27.53Q1,15,1,2.55V1"/><path class="cls-4" d="M58.24,64.54a3.89,3.89,0,0,1-3.7,3.21c-3.72.07-7.44.07-11.16.08h-.79l-6,0H34.94A5.24,5.24,0,0,0,29.87,71l-.18.35c-.18-.33-.32-.63-.49-.91a5,5,0,0,0-4.53-2.63c-6.1,0-12.21,0-18.31,0h0c-.31,0-.61,0-.92,0H5.27A4.15,4.15,0,0,1,1,63.59V34.11h9.48a1.4,1.4,0,0,0-.29,1,2.28,2.28,0,0,0,.7,1.27l.09.09c.37.43.76.85,1.13,1.26.58.64,1.19,1.3,1.76,2a1.76,1.76,0,0,0,1.32.71,1.83,1.83,0,0,0,1.27-.63c.6-.65,1.23-1.3,1.84-1.93l1.53-1.6A1.11,1.11,0,0,1,20.6,36a1,1,0,0,1,.53.13,1.29,1.29,0,0,1,.21,1.41,2.63,2.63,0,0,1-.41.55c-1.07,1-2.17,2.08-3.23,3.1l-1.5,1.43c-1.18,1.13-.81,2.08-.48,2.54A3.66,3.66,0,0,0,17,46.23c-.12.13-.25.26-.38.38-.68.67-1.38,1.36-2.07,2.06-2,2.08-3.69,3.8-5.23,5.42a2.66,2.66,0,0,0-.7,2.59,2.81,2.81,0,0,0,2.1,1.9c.54.14,1.08.31,1.66.49l.19.07c-.13.25-.24.51-.36.76l-.21.45a1.79,1.79,0,0,0-.06,1.6,1.76,1.76,0,0,0,1.27.91c1.52.34,3.07.66,4.57,1l1.54.33a1.69,1.69,0,0,0,.38,0,1.64,1.64,0,0,0,1.54-1.37v0c.35-1.15.63-2.12.88-3.11a.4.4,0,0,1,0-.12h.12l8.75,0H40s0,.05,0,.07a17.68,17.68,0,0,0,.6,2.14c.13.37.24.72.35,1.07a1.59,1.59,0,0,0,1.6,1.3,2.7,2.7,0,0,0,.6-.07c1.84-.43,3.73-.81,5.56-1.18l.1,0A2,2,0,0,0,50.19,62a1.84,1.84,0,0,0,0-1.6c-.13-.33-.28-.64-.43-.94l-.18-.37,1.38-.38.18-.05a2.76,2.76,0,0,0,1.37-5l-.1-.1c-1.28-1.33-2.61-2.65-3.9-3.93L46.1,47.27c-.34-.34-.67-.7-1-1.07a2.69,2.69,0,0,0,1.23-.86A2,2,0,0,0,46,42.61l-1.22-1.18L41.18,38a1.41,1.41,0,0,1-.54-1.13,1.06,1.06,0,0,1,.64-.72A1,1,0,0,1,41.7,36a.51.51,0,0,1,.36.17c1.08,1,2.25,2.2,3.58,3.55h0a1.82,1.82,0,0,0,1.31.76,1.84,1.84,0,0,0,1.34-.8l2.36-2.6.56-.62A2.25,2.25,0,0,0,52,34.79a1.73,1.73,0,0,0-.21-.68h6.62v3.75c0,8.09,0,16.17,0,24.26a13.92,13.92,0,0,1-.13,2.42"/></g></svg>