<svg id="Layer_1" data-name="Layer 1" xmlns="http://www.w3.org/2000/svg" viewBox="0 0 58.94 59"><title>logo_senter</title><path d="M49.53,32.16a1.32,1.32,0,0,0-1.35-1.42,1.4,1.4,0,1,0,1.35,1.42m-8.81.89a1.38,1.38,0,0,0-1.37-1.42,1.41,1.41,0,0,0-1.43,1.42,1.4,1.4,0,1,0,2.8,0M29.49,23.13c.82-.82,1.56-1.58,2.33-2.34.19-.18.24-.3,0-.51L29.7,18.14c-.13-.13-.25-.2-.41,0-.78.79-1.57,1.57-2.32,2.34a.46.46,0,0,0,.16.31c.77.76,1.55,1.54,2.36,2.36m17.66,2.68a3.41,3.41,0,1,0-6.82-.06,3.46,3.46,0,0,0,3.42,3.46,3.35,3.35,0,0,0,3.4-3.4M29.42,47.64l-.36.08a3.38,3.38,0,0,0-1.9,1.37,10.71,10.71,0,0,0-1.64,3.38.53.53,0,0,0,.18.61l3.51,3.51c.23.23.36.24.61,0q1.72-1.79,3.5-3.51a.64.64,0,0,0,.17-.74,12.15,12.15,0,0,0-1-2.38,5.87,5.87,0,0,0-1.28-1.61,2.92,2.92,0,0,0-1.78-.71m-13-6.23.25-.14,3.55-3.56a.9.9,0,0,0,.25-.74v-9.2a.8.8,0,0,0-.38-.77c-1.48-1-2.95-2.08-4.4-3.15a.51.51,0,0,0-.75,0Q12.75,25.42,10.56,27a.93.93,0,0,0-.46.87c0,3.05,0,6.08,0,9.13a1.12,1.12,0,0,0,.36.89l3.29,3.28c.1.1.17.24.35.23a1.27,1.27,0,0,0,.05-.61V37.21c0-.54,0-.54.49-.54H16c.23,0,.36.08.34.33v.51c0,1.25,0,2.54,0,3.9M22,35.73a.44.44,0,0,0,.39-.2c1.9-1.89,3.81-3.8,5.7-5.7.33-.33.33-.34,0-.67L15.61,16.74c-.36-.37-.37-.37-.72,0L2.47,29.14c-.35.35-.35.36,0,.69l5.7,5.7c.1.1.17.25.43.2v-.66c0-2.67,0-5.34,0-8A1,1,0,0,1,9,26.14q3-2.07,5.89-4.2a.5.5,0,0,1,.71,0c2,1.42,3.92,2.82,5.9,4.2a1,1,0,0,1,.46.94c0,2.67,0,5.34,0,8,0,.2,0,.39,0,.64m22.63,6c.25,0,.36-.27.53-.41L56.39,30c.56-.56.57-.45,0-1L44.25,16.84,44,16.57c-.16-.2-.31-.16-.46,0s-.15.15-.21.23Q37.21,22.93,31.1,29c-.08.08-.17.18-.26.26s-.15.32,0,.46a1.09,1.09,0,0,1,.18.19L42.57,41.45c.11.11.19.28.44.28,0-1.07,0-2.14,0-3.22a4,4,0,0,0-.07-1.68c-.23-.51-.84-.74-1.23-1.13,0,0,0,0-.05-.05a.5.5,0,0,0-.77-.07,2.39,2.39,0,0,1-.22.12,3,3,0,0,1-4.2-3.18,2.78,2.78,0,0,1,2.17-2.36,2.87,2.87,0,0,1,3,1,3.09,3.09,0,0,1,.61,2.6c0,.13-.11.28,0,.4s.36.39.62.46c.15-.12.1-.25.12-.38v-3c0-.47,0-.49-.5-.62a5,5,0,0,1,2.1-9.7,5,5,0,0,1,3.26,7.72,1.55,1.55,0,0,0-.4.66,2.2,2.2,0,0,1,1.34,0,2.88,2.88,0,0,1,2.33,3,2.93,2.93,0,0,1-4.61,2.37,1,1,0,0,0-1.32-.06.7.7,0,0,1-.23.11c-.37.12-.47.38-.47.78,0,1.93,0,3.85,0,5.8a.48.48,0,0,0,.05.51m-2-26.39c0-.15-.14-.22-.24-.32l-4.76-4.76C35,7.63,32.4,5.06,29.83,2.47c-.38-.38-.34-.34-.67,0l-.23.23L16.87,14.76c-.09.08-.17.18-.27.26s-.21.32,0,.51c.49.47.94,1,1.43,1.42.3.3.54.81.92.81s.66-.53,1-.82c.58-.55,1.12-1.13,1.72-1.72l2.25,2.28c.43.42.38.31.73,0,.64-.64,1.28-1.27,1.91-1.91.35-.35.3-.4.68,0,.65.68,1.35,1.34,2,2,.23.23.36.25.61,0,.67-.69,1.37-1.37,2-2.06.23-.25.38-.23.59,0,.66.68,1.34,1.34,2,2,.31.31.33.31.62,0s.78-.78,1.16-1.16.75-.75,1.23-1.21c.2.24.33.46.51.64.6.61,1.22,1.22,1.83,1.83.13.13.23.24.41.06l2.38-2.4M34.86,51.4c.13,0,.19-.08.28-.15L42.35,44c.3-.29.28-.31-.05-.64L29.85,30.94c-.35-.35-.35-.35-.68,0L16.72,43.37c-.33.33-.33.35,0,.68l7.12,7.12c.09.1.18.24.39.19l.38-.9a9.07,9.07,0,0,1,2.12-3.16,3.89,3.89,0,0,1,5.64,0,9.51,9.51,0,0,1,2.21,3.41,1.16,1.16,0,0,0,.28.68M45.61,30.51c-.33-.07-.61.13-.92.15-.15,0-.2.13-.2.26V32.8c0,.11,0,.2.18.2a.55.55,0,0,0,.53-.51,4.06,4.06,0,0,1,.41-2s.07-.05,0-.05a.08.08,0,0,1,0,.05M29.5,0a1.25,1.25,0,0,1,.17.12L30,.46,58.53,29c.54.54.54.54,0,1.09l-13,13L30.05,58.55c-.6.59-.45.61-1,0Q14.7,44.25.41,30c-.54-.55-.54-.42,0-1Q14.73,14.7,29,.4c.15-.15.27-.35.48-.4"/><path d="M45.61,30.51a.12.12,0,0,1,0-.05s0,0,0,.05h0"/><path d="M31.92,41.07a2.4,2.4,0,0,0-2.39-2.49,2.46,2.46,0,1,0,2.39,2.49M29.49,45a3.9,3.9,0,0,1-4-4,4,4,0,0,1,4-4,4,4,0,1,1,0,8"/><path d="M32.15,10c-.84.84-1.64,1.63-2.43,2.44-.17.18-.28.18-.47,0-.79-.81-1.59-1.6-2.4-2.39a9.41,9.41,0,0,1,1-1.07c.45-.46.93-.92,1.37-1.39.12-.11.23-.26.41-.08L32.15,10"/><path d="M15.25,31.76h-.62c-.46,0-.46,0-.48-.44s0-.79,0-1.19c0-.25.06-.4.35-.4.52,0,1.05,0,1.56,0,.25,0,.33.12.33.35,0,.45,0,.87,0,1.32,0,.28-.12.38-.38.36Z"/></svg>