<svg width="80" height="80" viewBox="0 0 80 80" fill="none" xmlns="http://www.w3.org/2000/svg">
<path fill-rule="evenodd" clip-rule="evenodd" d="M79.1614 49.4214C78.653 49.2194 78.0725 49.3457 77.6947 49.7412L72.0001 55.7265V20.1755H72.0068L77.4402 14.3093C77.9401 13.7691 77.9071 12.9251 77.3663 12.4252L77.3651 12.424L75.4095 10.6041L78.1268 7.67095C78.6261 7.13022 78.5925 6.28678 78.0518 5.78755L72.1851 0.3546C71.6449 -0.145241 70.8014 -0.112894 70.3015 0.427837L60.8215 10.6633H14.6667C14.6625 6.98314 11.6803 4.00118 7.99988 3.99691H6.66687C2.98645 4.00118 0.00427247 6.98314 0 10.6633V67.9924C0 68.7284 0.596924 69.3253 1.33362 69.3253H21.5173L18.717 72.6875C18.2465 73.2539 18.3234 74.0942 18.8892 74.5648L25.0372 79.6834C25.603 80.1546 26.4441 80.0777 26.9153 79.5119L26.9159 79.5113L33.7402 71.3131C34.2114 70.7455 34.5148 70.0565 34.6149 69.3253H59.0466L51.0333 77.7396C50.5261 78.273 50.5475 79.1171 51.0809 79.6242C51.3287 79.8598 51.6577 79.9916 52.0001 79.991H78.6664C79.4031 79.991 80 79.3941 80 78.6581V50.6603C80 50.1147 79.668 49.624 79.1614 49.4214ZM74.5772 13.463L71.9996 16.2508V14.2899L73.5994 12.5567L74.5772 13.463ZM69.3333 13.2445V13.2256H69.3492L71.641 10.7514L67.725 7.12861L54.141 21.8077L58.057 25.4305L69.3333 13.2445ZM55.4959 26.6911L52.4289 27.5858L53.0838 24.458L55.4959 26.6911ZM75.263 6.83547L71.3488 3.21452L69.5367 5.17177L73.4515 8.79638L75.263 6.83547ZM6.66775 6.66339H8.00076C10.2102 6.66339 12.001 8.45403 12.001 10.6633V61.3609C10.8535 60.4784 9.4479 59.9974 8.00076 59.9926H6.66775C5.22 59.9974 3.81497 60.4784 2.66751 61.3609V10.6633C2.66751 8.45403 4.45828 6.66339 6.66775 6.66339ZM8.00076 62.6592H6.66775C4.45828 62.6592 2.66751 64.4504 2.66751 66.6591H12.001C12.001 64.4504 10.2102 62.6592 8.00076 62.6592ZM31.6913 69.6078L30.838 70.6319L26.7395 67.2203L27.5916 66.1949C28.0627 65.6292 28.9032 65.5523 29.469 66.0234C29.4696 66.0234 29.4696 66.0241 29.4702 66.0241L31.5192 67.7256C32.0856 68.1961 32.1631 69.0365 31.6925 69.6029L31.6913 69.6041V69.6078ZM21.6211 73.3692L25.7202 76.7809L29.1321 72.6814L25.0336 69.2692L21.6211 73.3692ZM34.055 66.659C33.8334 66.2898 33.5533 65.9596 33.2255 65.6807L31.1766 63.9755C29.4786 62.562 26.9566 62.7921 25.543 64.49L23.7339 66.659H14.6672V13.3298H58.3549L51.2791 20.9757C51.1778 21.0899 51.0972 21.2217 51.0417 21.3639C51.0258 21.4023 51.0136 21.4383 51.0002 21.4786C50.9952 21.4939 50.9892 21.5092 50.9831 21.5248C50.9734 21.5496 50.9634 21.575 50.9574 21.6013L49.3656 29.2112C49.2155 29.932 49.6781 30.6381 50.399 30.7882C50.6132 30.8328 50.8348 30.8242 51.0441 30.7632L58.5111 28.5875C58.5297 28.5816 58.5467 28.5731 58.5636 28.5647C58.5715 28.5608 58.5793 28.5569 58.5872 28.5533C58.5941 28.5502 58.6011 28.5473 58.6082 28.5447C58.6418 28.5325 58.6766 28.5155 58.7126 28.4978C58.8621 28.43 58.9976 28.3342 59.1123 28.2164L69.3339 17.1705V58.5261L61.5873 66.659H34.055ZM55.1105 77.3244H77.3334V53.993L55.1105 77.3244ZM64.0012 74.6581C63.4616 74.6581 62.9752 74.3335 62.7689 73.8354C62.5626 73.3374 62.6767 72.7637 63.0582 72.3823L72.3917 63.0501C72.6413 62.7999 72.9807 62.6595 73.3341 62.6595C74.0701 62.6595 74.6677 63.2558 74.6677 63.9924V73.3252C74.6677 74.0613 74.0707 74.6581 73.3341 74.6581H64.0012ZM72.0006 71.9917V67.2105L67.2191 71.9917H72.0006ZM49.3335 50.6602H58.6664C59.4031 50.6602 60 51.2571 60 51.9931C60 52.7297 59.4031 53.3266 58.667 53.3266H21.3336C20.5969 53.3266 20 52.7297 20 51.9931C20 51.2571 20.5969 50.6602 21.3336 50.6602H30.6665V35.9945C30.6677 35.6412 30.8075 35.3018 31.0559 35.0504L39.0558 27.0511C39.5764 26.5305 40.4205 26.5305 40.9412 27.0511L48.941 35.0504C49.1907 35.3012 49.3317 35.6405 49.3335 35.9945V50.6602ZM44.7824 34.6611L40.0009 29.88L35.2195 34.6611H44.7824ZM33.3332 37.3277H46.6669V50.6604H33.3332V37.3277ZM38.666 21.3292H41.3333V23.9957H38.666V21.3292ZM41.3333 55.9931H38.666V58.6595H41.3333V55.9931Z" fill="black"/>
</svg>
