<svg width="1032" height="1195" viewBox="0 0 1032 1195" fill="none" xmlns="http://www.w3.org/2000/svg">
<path opacity="0.5" d="M336.486 44.78C209.855 152.359 190.231 355.783 104.468 505.856C74.6135 558.077 36.037 604.812 15.9102 662.743C-30.2977 795.344 33.2975 945.756 118.417 1051.07C159.006 1101.31 206.416 1147.34 263.778 1168.52C307.889 1184.8 355.187 1185.48 401.619 1185.91L1215.08 1194.39C1305.9 1195.32 1406.81 1191.96 1472.12 1120.88C1517.12 1071.94 1535.4 1000.46 1550.92 932.242C1569.98 848.412 1587.26 757.373 1557.6 677.53C1523.72 586.18 1438.04 534.412 1384.82 455.587C1298.44 327.878 1300.42 134.716 1190.42 32.764C1139.07 -14.8195 1071.31 -33.4797 1005.28 -42.8098C880.805 -60.4239 762.896 -27.1748 640.653 -31.8116C536.161 -35.7698 423.171 -28.8712 336.486 44.78Z" fill="#E7ECFF"/>
</svg>
